<svg width="64" height="64" viewBox="0 0 64 64" fill="none" xmlns="http://www.w3.org/2000/svg">
<g filter="url(#filter0_d_304_88)">
<path d="M46.5859 22.5859C47.367 21.8049 48.633 21.8049 49.414 22.5859C50.1951 23.367 50.1951 24.633 49.414 25.414L32 42.8281L14.5859 25.414C13.8049 24.633 13.8049 23.367 14.5859 22.5859C15.367 21.8049 16.633 21.8049 17.414 22.5859L32 37.1718L46.5859 22.5859Z" fill="#0396FF"/>
<path d="M46.5859 22.5859C47.367 21.8049 48.633 21.8049 49.414 22.5859C50.1951 23.367 50.1951 24.633 49.414 25.414L32 42.8281L14.5859 25.414C13.8049 24.633 13.8049 23.367 14.5859 22.5859C15.367 21.8049 16.633 21.8049 17.414 22.5859L32 37.1718L46.5859 22.5859Z" stroke="#FBF7F4" stroke-linecap="round"/>
</g>
<defs>
<filter id="filter0_d_304_88" x="13.5001" y="21.5001" width="38.1997" height="22.835" filterUnits="userSpaceOnUse" color-interpolation-filters="sRGB">
<feFlood flood-opacity="0" result="BackgroundImageFix"/>
<feColorMatrix in="SourceAlpha" type="matrix" values="0 0 0 0 0 0 0 0 0 0 0 0 0 0 0 0 0 0 127 0" result="hardAlpha"/>
<feOffset dx="1.2" dy="0.8"/>
<feComposite in2="hardAlpha" operator="out"/>
<feColorMatrix type="matrix" values="0 0 0 0 0.00392157 0 0 0 0 0.247059 0 0 0 0 0.992157 0 0 0 1 0"/>
<feBlend mode="normal" in2="BackgroundImageFix" result="effect1_dropShadow_304_88"/>
<feBlend mode="normal" in="SourceGraphic" in2="effect1_dropShadow_304_88" result="shape"/>
</filter>
</defs>
</svg>
