<svg width="81" height="82" viewBox="0 0 81 82" fill="none" xmlns="http://www.w3.org/2000/svg">
<path d="M39.0703 69.4012V78.5014C39.0703 79.4557 39.8377 80.2329 40.792 80.2427C40.9428 80.2427 41.0937 80.2427 41.2445 80.2427C46.744 80.2427 51.9778 79.0884 56.7099 77.0093C57.3461 76.7305 57.7593 76.1042 57.7593 75.409V69.3979C57.7593 68.437 56.9789 67.6566 56.018 67.6566H40.8084C39.8475 67.6566 39.067 68.437 39.067 69.3979L39.0703 69.4012Z" fill="#013FFD" stroke="#FBF7F4" stroke-width="1.06" stroke-miterlimit="10"/>
<path d="M56.0213 51.1942H40.8117C39.8499 51.1942 39.0703 51.9738 39.0703 52.9355V58.153C39.0703 59.1147 39.8499 59.8943 40.8117 59.8943H56.0213C56.983 59.8943 57.7626 59.1147 57.7626 58.153V52.9355C57.7626 51.9738 56.983 51.1942 56.0213 51.1942Z" fill="#013FFD" stroke="#FBF7F4" stroke-width="1.06" stroke-miterlimit="10"/>
<path d="M41.6446 3.20417C20.6043 2.99101 3.11877 19.9617 2.73181 41.002C2.41043 58.4809 13.7373 73.3659 29.4684 78.4128C30.5932 78.7736 31.7442 77.9341 31.7442 76.7535V27.514L31.1802 26.3072C30.6161 25.107 28.9699 24.9528 28.1927 26.0285L24.7363 30.8163V37.316C24.7363 38.1326 24.0738 38.7917 23.2606 38.7917H18.8826C18.0661 38.7917 17.4069 38.1293 17.4069 37.316V30.6327C17.4069 29.2029 17.8496 27.8321 18.6891 26.6712L24.5461 18.5614C25.8348 16.7774 27.8353 15.7543 29.9996 15.7543C30.2193 15.7543 30.4391 15.7641 30.6621 15.787C33.0724 16.0133 35.1285 17.4562 36.155 19.6501L39.0769 25.8809V41.6874C39.0769 42.6482 39.8574 43.4287 40.8182 43.4287H56.0278C56.9887 43.4287 57.7692 42.6482 57.7692 41.6874V27.5107L57.2051 26.3039C56.6411 25.1037 54.9948 24.9496 54.2176 26.0252L50.7612 30.813V37.3127C50.7612 38.1293 50.0988 38.7884 49.2855 38.7884H44.9076C44.091 38.7884 43.4319 38.126 43.4319 37.3127V30.6294C43.4319 29.1996 43.8746 27.8288 44.7141 26.6679L50.571 18.5581C51.8598 16.7741 53.8602 15.751 56.0246 15.751C56.2443 15.751 56.464 15.7608 56.687 15.7838C59.0973 16.01 61.1535 17.453 62.1799 19.6468L65.1018 25.8776V68.1452C65.1018 69.6898 66.9546 70.4604 68.0631 69.3848C75.2875 62.3834 79.7769 52.5781 79.7769 41.7234C79.7769 20.5815 62.744 3.41733 41.6512 3.20417H41.6446Z" fill="#013FFD" stroke="#FBF7F4" stroke-width="1.06" stroke-miterlimit="10"/>
<path d="M37.329 68.0107V77.1109C37.329 78.0652 38.0963 78.8424 39.0506 78.8523C39.2015 78.8523 39.3523 78.8523 39.5032 78.8523C45.0027 78.8523 50.2365 77.6979 54.9686 75.6188C55.6048 75.3401 56.018 74.7137 56.018 74.0185V68.0075C56.018 67.0466 55.2375 66.2661 54.2767 66.2661H39.067C38.1062 66.2661 37.3257 67.0466 37.3257 68.0075L37.329 68.0107Z" fill="#0396FF" stroke="#FBF7F4" stroke-width="1.06" stroke-miterlimit="10"/>
<path d="M54.2799 49.8038H39.0703C38.1086 49.8038 37.329 50.5834 37.329 51.5451V56.7626C37.329 57.7243 38.1086 58.5039 39.0703 58.5039H54.2799C55.2417 58.5039 56.0213 57.7243 56.0213 56.7626V51.5451C56.0213 50.5834 55.2417 49.8038 54.2799 49.8038Z" fill="#0396FF" stroke="#FBF7F4" stroke-width="1.06" stroke-miterlimit="10"/>
<path d="M39.9033 1.81373C18.8629 1.60057 1.37744 18.5679 0.990472 39.6083C0.669096 57.0872 11.996 71.9722 27.727 77.0191C28.8518 77.3798 30.0029 76.5403 30.0029 75.3598V26.1203L29.4389 24.9135C28.8748 23.7132 27.2286 23.5591 26.4514 24.6347L22.9949 29.4226V35.9223C22.9949 36.7388 22.3325 37.398 21.5192 37.398H17.1413C16.3247 37.398 15.6656 36.7356 15.6656 35.9223V29.239C15.6656 27.8092 16.1083 26.4384 16.9478 25.2775L22.8047 17.1677C24.0935 15.3837 26.0939 14.3605 28.2583 14.3605C28.478 14.3605 28.6977 14.3704 28.9207 14.3933C31.331 14.6196 33.3872 16.0625 34.4136 18.2564L37.3355 24.4872V40.2936C37.3355 41.2545 38.116 42.035 39.0769 42.035H54.2865C55.2474 42.035 56.0278 41.2545 56.0278 40.2936V26.117L55.4638 24.9102C54.8997 23.71 53.2535 23.5558 52.4763 24.6315L49.0199 29.4193V35.919C49.0199 36.7356 48.3574 37.3947 47.5442 37.3947H43.1662C42.3497 37.3947 41.6905 36.7323 41.6905 35.919V29.2357C41.6905 27.8059 42.1332 26.4351 42.9727 25.2742L48.8297 17.1644C50.1184 15.3804 52.1189 14.3573 54.2832 14.3573C54.5029 14.3573 54.7227 14.3671 54.9457 14.39C57.356 14.6163 59.4121 16.0592 60.4386 18.2531L63.3605 24.4839V66.7515C63.3605 68.296 65.2133 69.0667 66.3217 67.9911C73.5461 60.9896 78.0356 51.1844 78.0356 40.3297C78.029 19.191 60.9961 2.02689 39.9033 1.81373Z" fill="#0396FF" stroke="#FBF7F4" stroke-width="1.06" stroke-miterlimit="10"/>
</svg>
