<svg width="375" height="197" viewBox="0 0 375 197" fill="none" xmlns="http://www.w3.org/2000/svg">
<path d="M36.51 29.515C36.51 26.965 35.87 25.565 34.85 24.415C33.7 23.145 32.17 22.375 30.39 22.375C28.61 22.375 27.07 23.145 25.93 24.415C24.91 25.565 24.27 26.965 24.27 29.515V106.025C24.27 108.835 22.1 110.995 19.3 110.995H10.88C8.07003 110.995 5.91003 108.825 5.91003 106.025V13.315C5.91003 10.255 6.42003 8.72502 7.57003 7.44502C8.72003 6.16502 10.5 5.14502 12.67 5.14502C14.58 5.14502 15.73 5.78502 17.26 6.54502L18.03 6.92502C18.92 7.30502 19.82 7.69502 20.96 7.69502C22.87 7.69502 25.3 6.67502 27.21 6.03502C29.12 5.39502 31.16 5.14502 33.08 5.14502C38.44 5.14502 44.3 7.44502 47.11 9.86502C53.23 14.965 54.89 22.235 54.89 28.355V106.015C54.89 108.825 52.72 110.985 49.92 110.985H41.5C38.7 110.985 36.53 108.815 36.53 106.015V29.515H36.51Z" fill="#0396FF" stroke="#0396FF" stroke-width="1.06" stroke-miterlimit="10"/>
<path d="M65.5801 30.025C65.5801 20.715 68.3901 14.975 73.4901 10.775C78.0801 7.07503 83.8201 4.90503 90.0701 4.90503C96.3201 4.90503 102.06 7.07503 106.65 10.775C111.75 14.985 114.56 20.725 114.56 30.025V86.775C114.56 96.085 111.76 101.825 106.65 106.025C102.06 109.725 96.3201 111.895 90.0701 111.895C83.8201 111.895 78.0801 109.725 73.4901 106.025C68.3901 101.815 65.5801 96.075 65.5801 86.775V30.025ZM96.1901 29.635C96.1901 26.825 95.4201 25.295 94.2801 24.155C93.1301 23.135 91.6001 22.495 90.0701 22.495C88.5401 22.495 87.0101 23.135 85.8601 24.155C84.7101 25.305 83.9501 26.835 83.9501 29.635V87.145C83.9501 89.955 84.7201 91.485 85.8601 92.625C87.0101 93.645 88.5401 94.285 90.0701 94.285C91.6001 94.285 93.1301 93.645 94.2801 92.625C95.4301 91.475 96.1901 89.945 96.1901 87.145V29.635Z" fill="#0396FF" stroke="#0396FF" stroke-width="1.06" stroke-miterlimit="10"/>
<path d="M174.73 72.1049C172.94 72.1049 171.67 73.3749 171.67 75.0349V106.025C171.67 108.835 169.5 110.995 166.7 110.995H158.28C155.47 110.995 153.31 108.825 153.31 106.025V10.7649C153.31 7.95492 155.48 5.79492 158.28 5.79492H177.79C184.04 5.79492 189.78 7.96492 194.37 11.6649C199.47 15.8749 202.28 21.6149 202.28 30.9149V46.9849C202.28 56.2949 199.48 62.0349 194.37 66.2349C189.78 69.9349 184.04 72.1049 177.79 72.1049H174.73ZM174.73 22.8849C173.07 22.8849 171.67 24.1549 171.67 25.8149V52.2149C171.67 53.7449 173.07 55.0249 174.73 55.0249H177.15C178.43 55.0249 180.34 54.5149 181.87 52.9849C183.02 51.7049 183.91 49.7949 183.91 46.9949V30.9249C183.91 27.6049 182.63 25.5649 181.23 24.4249C179.83 23.2749 178.3 22.8949 177.15 22.8949H174.73V22.8849Z" fill="#0396FF" stroke="#0396FF" stroke-width="1.06" stroke-miterlimit="10"/>
<path d="M212.6 30.025C212.6 20.715 215.4 14.975 220.51 10.775C225.1 7.07503 230.84 4.90503 237.09 4.90503C243.34 4.90503 249.08 7.07503 253.67 10.775C258.77 14.985 261.58 20.725 261.58 30.025V86.775C261.58 96.085 258.78 101.825 253.67 106.025C249.08 109.725 243.34 111.895 237.09 111.895C230.84 111.895 225.1 109.725 220.51 106.025C215.41 101.815 212.6 96.075 212.6 86.775V30.025ZM243.21 29.635C243.21 26.825 242.45 25.295 241.3 24.155C240.15 23.135 238.62 22.495 237.09 22.495C235.56 22.495 234.03 23.135 232.88 24.155C231.73 25.305 230.97 26.835 230.97 29.635V87.145C230.97 89.955 231.73 91.485 232.88 92.625C234.03 93.645 235.56 94.285 237.09 94.285C238.62 94.285 240.15 93.645 241.3 92.625C242.45 91.475 243.21 89.945 243.21 87.145V29.635Z" fill="#0396FF" stroke="#0396FF" stroke-width="1.06" stroke-miterlimit="10"/>
<path d="M272.28 30.025C272.28 20.715 275.09 14.975 280.19 10.775C284.78 7.07503 290.52 4.90503 296.77 4.90503C303.02 4.90503 308.76 7.07503 313.35 10.775C318.45 14.985 321.26 20.725 321.26 30.025V86.775C321.26 96.085 318.46 101.825 313.35 106.025C308.76 109.725 303.02 111.895 296.77 111.895C290.52 111.895 284.78 109.725 280.19 106.025C275.09 101.815 272.28 96.075 272.28 86.775V30.025ZM302.88 29.635C302.88 26.825 302.11 25.295 300.97 24.155C299.82 23.135 298.29 22.495 296.76 22.495C295.23 22.495 293.7 23.135 292.55 24.155C291.4 25.305 290.64 26.835 290.64 29.635V87.145C290.64 89.955 291.41 91.485 292.55 92.625C293.7 93.645 295.23 94.285 296.76 94.285C298.29 94.285 299.82 93.645 300.97 92.625C302.12 91.475 302.88 89.945 302.88 87.145V29.635Z" fill="#0396FF" stroke="#0396FF" stroke-width="1.06" stroke-miterlimit="10"/>
<path d="M350.32 89.9549C350.32 91.6149 351.6 92.8849 353.38 92.8849H363.33C366.14 92.8849 368.3 95.0549 368.3 97.8549V105.885C368.3 108.695 366.13 110.985 363.33 110.985H336.94C334.13 110.985 331.97 108.815 331.97 106.015V10.7649C331.97 7.95492 334.14 5.79492 336.94 5.79492H345.36C348.16 5.79492 350.33 7.96492 350.33 10.7649V89.9549H350.32Z" fill="#0396FF" stroke="#0396FF" stroke-width="1.06" stroke-miterlimit="10"/>
<path d="M31.21 25.265C31.21 22.715 30.57 21.315 29.55 20.165C28.4 18.895 26.87 18.125 25.09 18.125C23.31 18.125 21.77 18.895 20.63 20.165C19.61 21.315 18.97 22.715 18.97 25.265V101.775C18.97 104.585 16.8 106.745 14 106.745H5.57999C2.76999 106.745 0.609985 104.575 0.609985 101.775V9.07504C0.609985 6.01504 1.11999 4.48504 2.26999 3.20504C3.40999 1.93504 5.18999 0.915039 7.35999 0.915039C9.26999 0.915039 10.42 1.55504 11.95 2.31504L12.72 2.69504C13.61 3.07504 14.51 3.46504 15.65 3.46504C17.56 3.46504 19.99 2.44504 21.9 1.80504C23.81 1.16504 25.85 0.915039 27.77 0.915039C33.13 0.915039 38.99 3.21504 41.8 5.63504C47.92 10.735 49.58 18.005 49.58 24.125V101.785C49.58 104.595 47.41 106.755 44.61 106.755H36.19C33.39 106.755 31.22 104.585 31.22 101.785V25.265H31.21Z" fill="#FBF7F4" stroke="#0396FF" stroke-width="1.06" stroke-miterlimit="10"/>
<path d="M60.28 25.775C60.28 16.465 63.09 10.725 68.19 6.52503C72.78 2.82503 78.52 0.655029 84.77 0.655029C91.02 0.655029 96.76 2.82503 101.35 6.52503C106.45 10.735 109.26 16.475 109.26 25.775V82.525C109.26 91.835 106.46 97.575 101.35 101.775C96.76 105.475 91.02 107.645 84.77 107.645C78.52 107.645 72.78 105.475 68.19 101.775C63.09 97.565 60.28 91.825 60.28 82.525V25.775ZM90.88 25.395C90.88 22.585 90.11 21.055 88.97 19.915C87.82 18.895 86.29 18.255 84.76 18.255C83.23 18.255 81.7 18.895 80.55 19.915C79.4 21.065 78.64 22.595 78.64 25.395V82.905C78.64 85.715 79.41 87.245 80.55 88.385C81.7 89.405 83.23 90.045 84.76 90.045C86.29 90.045 87.82 89.405 88.97 88.385C90.12 87.235 90.88 85.705 90.88 82.905V25.395Z" fill="#FBF7F4" stroke="#0396FF" stroke-width="1.06" stroke-miterlimit="10"/>
<path d="M169.43 67.8549C167.64 67.8549 166.37 69.1249 166.37 70.7849V101.775C166.37 104.585 164.2 106.745 161.4 106.745H152.98C150.17 106.745 148.01 104.575 148.01 101.775V6.52493C148.01 3.71493 150.18 1.55493 152.98 1.55493H172.49C178.74 1.55493 184.48 3.72493 189.07 7.42493C194.17 11.6349 196.98 17.3749 196.98 26.6749V42.7449C196.98 52.0549 194.18 57.7949 189.07 61.9949C184.48 65.6949 178.74 67.8649 172.49 67.8649H169.43V67.8549ZM169.43 18.6349C167.77 18.6349 166.37 19.9049 166.37 21.5649V47.9649C166.37 49.4949 167.77 50.7749 169.43 50.7749H171.85C173.13 50.7749 175.04 50.2649 176.57 48.7349C177.72 47.4549 178.61 45.5449 178.61 42.7449V26.6749C178.61 23.3549 177.33 21.3149 175.93 20.1749C174.53 19.0249 173 18.6449 171.85 18.6449H169.43V18.6349Z" fill="#FBF7F4" stroke="#0396FF" stroke-width="1.06" stroke-miterlimit="10"/>
<path d="M207.3 25.775C207.3 16.465 210.1 10.725 215.21 6.52503C219.8 2.82503 225.54 0.655029 231.79 0.655029C238.04 0.655029 243.78 2.82503 248.37 6.52503C253.47 10.735 256.28 16.475 256.28 25.775V82.525C256.28 91.835 253.48 97.575 248.37 101.775C243.78 105.475 238.04 107.645 231.79 107.645C225.54 107.645 219.8 105.475 215.21 101.775C210.11 97.565 207.3 91.825 207.3 82.525V25.775ZM237.9 25.395C237.9 22.585 237.14 21.055 235.99 19.915C234.84 18.895 233.31 18.255 231.78 18.255C230.25 18.255 228.72 18.895 227.57 19.915C226.42 21.065 225.66 22.595 225.66 25.395V82.905C225.66 85.715 226.42 87.245 227.57 88.385C228.72 89.405 230.25 90.045 231.78 90.045C233.31 90.045 234.84 89.405 235.99 88.385C237.14 87.235 237.9 85.705 237.9 82.905V25.395Z" fill="#FBF7F4" stroke="#0396FF" stroke-width="1.06" stroke-miterlimit="10"/>
<path d="M266.97 25.775C266.97 16.465 269.78 10.725 274.88 6.52503C279.47 2.82503 285.21 0.655029 291.46 0.655029C297.71 0.655029 303.45 2.82503 308.04 6.52503C313.14 10.735 315.95 16.475 315.95 25.775V82.525C315.95 91.835 313.15 97.575 308.04 101.775C303.45 105.475 297.71 107.645 291.46 107.645C285.21 107.645 279.47 105.475 274.88 101.775C269.78 97.565 266.97 91.825 266.97 82.525V25.775ZM297.58 25.395C297.58 22.585 296.81 21.055 295.67 19.915C294.52 18.895 292.99 18.255 291.46 18.255C289.93 18.255 288.4 18.895 287.25 19.915C286.1 21.065 285.34 22.595 285.34 25.395V82.905C285.34 85.715 286.11 87.245 287.25 88.385C288.4 89.405 289.93 90.045 291.46 90.045C292.99 90.045 294.52 89.405 295.67 88.385C296.82 87.235 297.58 85.705 297.58 82.905V25.395Z" fill="#FBF7F4" stroke="#0396FF" stroke-width="1.06" stroke-miterlimit="10"/>
<path d="M345.01 85.7149C345.01 87.3749 346.29 88.6449 348.07 88.6449H358.02C360.83 88.6449 362.99 90.8149 362.99 93.6149V101.645C362.99 104.455 360.82 106.745 358.02 106.745H331.63C328.82 106.745 326.66 104.575 326.66 101.775V6.52493C326.66 3.71493 328.83 1.55493 331.63 1.55493H340.05C342.85 1.55493 345.02 3.72493 345.02 6.52493V85.7149H345.01Z" fill="#FBF7F4" stroke="#0396FF" stroke-width="1.06" stroke-miterlimit="10"/>
<path d="M19.24 172.175C18.15 172.175 17.38 172.955 17.38 173.955V192.785C17.38 194.485 16.06 195.805 14.36 195.805H9.24998C7.53998 195.805 6.22998 194.485 6.22998 192.785V134.885C6.22998 133.185 7.54998 131.865 9.24998 131.865H21.11C24.91 131.865 28.4 133.185 31.19 135.435C34.29 137.995 35.99 141.485 35.99 147.135V156.905C35.99 162.565 34.29 166.055 31.19 168.605C28.4 170.855 24.91 172.175 21.11 172.175H19.25H19.24ZM19.24 142.255C18.23 142.255 17.38 143.035 17.38 144.035V160.075C17.38 161.005 18.23 161.775 19.24 161.775H20.71C21.49 161.775 22.65 161.465 23.58 160.535C24.28 159.755 24.82 158.595 24.82 156.895V147.125C24.82 145.115 24.04 143.875 23.19 143.175C22.34 142.475 21.41 142.245 20.71 142.245H19.24V142.255Z" fill="#0396FF" stroke="#0396FF" stroke-width="1.06" stroke-miterlimit="10"/>
<path d="M72.02 151.555C72.02 157.445 71.63 161.785 68.61 164.495L67.91 165.115C67.52 165.505 67.29 165.885 67.29 166.275C67.29 166.665 67.52 167.055 67.91 167.435L68.61 168.055C71.63 170.765 72.02 174.335 72.02 180.225V192.785C72.02 194.485 70.7 195.805 69 195.805H63.88C62.18 195.805 60.86 194.485 60.86 192.785V176.125C60.86 174.105 60.39 173.105 59.77 172.405C58.84 171.475 57.6 171.245 56.75 171.245H55.28C54.27 171.245 53.42 172.025 53.42 172.955V192.795C53.42 194.495 52.1 195.815 50.4 195.815H45.29C43.58 195.815 42.27 194.495 42.27 192.795V134.895C42.27 133.195 43.59 131.875 45.29 131.875H57.15C60.95 131.875 64.44 133.195 67.23 135.445C70.33 138.005 72.03 141.495 72.03 147.145V151.565L72.02 151.555ZM55.28 142.255C54.27 142.255 53.42 143.035 53.42 144.035V159.385C53.42 160.315 54.27 161.085 55.28 161.085H56.75C57.6 161.085 58.84 160.855 59.77 159.925C60.39 159.225 60.86 158.225 60.86 156.205V147.135C60.86 143.185 58.15 142.255 56.75 142.255H55.28Z" fill="#0396FF" stroke="#0396FF" stroke-width="1.06" stroke-miterlimit="10"/>
<path d="M78.53 146.595C78.53 140.935 80.23 137.445 83.34 134.895C86.13 132.645 89.62 131.325 93.41 131.325C97.2 131.325 100.7 132.645 103.49 134.895C106.59 137.455 108.29 140.945 108.29 146.595V181.085C108.29 186.745 106.59 190.235 103.49 192.785C100.7 195.035 97.21 196.345 93.41 196.345C89.61 196.345 86.13 195.025 83.34 192.785C80.24 190.225 78.53 186.735 78.53 181.085V146.595ZM97.13 146.365C97.13 144.655 96.66 143.725 95.97 143.035C95.27 142.415 94.34 142.025 93.41 142.025C92.48 142.025 91.55 142.415 90.85 143.035C90.15 143.735 89.69 144.665 89.69 146.365V181.315C89.69 183.015 90.15 183.945 90.85 184.645C91.55 185.265 92.48 185.655 93.41 185.655C94.34 185.655 95.27 185.265 95.97 184.645C96.67 183.945 97.13 183.015 97.13 181.315V146.365Z" fill="#0396FF" stroke="#0396FF" stroke-width="1.06" stroke-miterlimit="10"/>
<path d="M117.83 195.815C116.12 195.815 114.81 194.495 114.81 192.795V134.895C114.81 133.195 116.13 131.875 117.83 131.875H129.69C133.49 131.875 136.98 133.195 139.77 135.445C142.87 138.005 144.57 141.495 144.57 147.145V180.545C144.57 186.205 142.87 189.695 139.77 192.245C136.98 194.495 133.49 195.815 129.69 195.815H117.83ZM129.3 185.275C130.15 185.275 131.47 184.885 132.4 183.725C133.02 182.945 133.41 181.865 133.41 180.395V147.145C133.41 145.205 132.79 143.965 131.94 143.265C131.09 142.485 130 142.255 129.3 142.255H127.75C126.59 142.335 125.97 143.035 125.97 144.035V183.565C125.97 184.725 126.51 185.265 127.83 185.265H129.3V185.275Z" fill="#0396FF" stroke="#0396FF" stroke-width="1.06" stroke-miterlimit="10"/>
<path d="M162.24 181.315C162.24 182.865 162.63 183.715 163.25 184.415C163.95 185.195 164.88 185.655 165.96 185.655C167.04 185.655 167.97 185.185 168.67 184.415C169.29 183.715 169.68 182.865 169.68 181.315V134.885C169.68 133.185 171 131.865 172.7 131.865H177.81C179.51 131.865 180.83 133.185 180.83 134.885V182.085C180.83 187.125 178.89 190.765 175.71 193.245C173.15 195.185 169.74 196.345 165.94 196.345C162.14 196.345 158.65 195.105 155.86 192.935C152.84 190.535 151.06 187.125 151.06 181.775V134.885C151.06 133.185 152.38 131.865 154.08 131.865H159.2C160.9 131.865 162.22 133.185 162.22 134.885V181.315H162.24Z" fill="#0396FF" stroke="#0396FF" stroke-width="1.06" stroke-miterlimit="10"/>
<path d="M187.35 146.595C187.35 140.935 189.05 137.445 192.15 134.895C194.94 132.645 198.43 131.325 202.23 131.325C206.03 131.325 209.51 132.645 212.3 134.895C215.4 137.455 217.11 140.945 217.11 146.595V149.695C217.11 151.395 215.79 152.715 214.09 152.715H208.98C207.27 152.715 205.96 151.395 205.96 149.695V146.365C205.96 144.655 205.49 143.725 204.8 143.035C204.1 142.415 203.17 142.025 202.24 142.025C201.15 142.025 200.22 142.485 199.53 143.265C198.91 143.965 198.52 144.815 198.52 146.365V181.315C198.52 182.865 198.91 183.715 199.53 184.415C200.23 185.195 201.16 185.655 202.24 185.655C203.17 185.655 204.1 185.265 204.8 184.645C205.5 183.945 205.96 183.015 205.96 181.315V177.205C205.96 175.505 207.28 174.185 208.98 174.185H214.09C215.79 174.185 217.11 175.505 217.11 177.205V181.085C217.11 186.745 215.4 190.235 212.3 192.785C209.51 195.035 206.02 196.345 202.23 196.345C198.44 196.345 194.94 195.025 192.15 192.785C189.05 190.225 187.35 186.735 187.35 181.085V146.595Z" fill="#0396FF" stroke="#0396FF" stroke-width="1.06" stroke-miterlimit="10"/>
<path d="M246.18 131.865C247.89 131.865 249.2 133.185 249.2 134.885V139.765C249.2 141.465 247.88 142.785 246.18 142.785H242.38C241.29 142.785 240.52 143.555 240.52 144.565V192.695C240.52 194.395 239.2 195.795 237.5 195.795H232.38C230.68 195.795 229.36 194.475 229.36 192.775V144.565C229.36 143.555 228.58 142.785 227.5 142.785H223.7C222 142.785 220.68 141.465 220.68 139.765V134.885C220.68 133.185 222 131.865 223.7 131.865H246.18Z" fill="#0396FF" stroke="#0396FF" stroke-width="1.06" stroke-miterlimit="10"/>
<path d="M265.32 192.785C265.32 194.485 264 195.805 262.3 195.805H257.18C255.48 195.805 254.16 194.485 254.16 192.785V134.885C254.16 133.185 255.48 131.865 257.18 131.865H262.3C264 131.865 265.32 133.265 265.32 134.965V192.785Z" fill="#0396FF" stroke="#0396FF" stroke-width="1.06" stroke-miterlimit="10"/>
<path d="M271.83 146.595C271.83 140.935 273.53 137.445 276.63 134.895C279.42 132.645 282.91 131.325 286.71 131.325C290.51 131.325 293.99 132.645 296.78 134.895C299.88 137.455 301.59 140.945 301.59 146.595V181.085C301.59 186.745 299.88 190.235 296.78 192.785C293.99 195.035 290.5 196.345 286.71 196.345C282.92 196.345 279.42 195.025 276.63 192.785C273.53 190.225 271.83 186.735 271.83 181.085V146.595ZM290.43 146.365C290.43 144.655 289.96 143.725 289.27 143.035C288.57 142.415 287.64 142.025 286.71 142.025C285.78 142.025 284.85 142.415 284.15 143.035C283.45 143.735 282.99 144.665 282.99 146.365V181.315C282.99 183.015 283.46 183.945 284.15 184.645C284.85 185.265 285.78 185.655 286.71 185.655C287.64 185.655 288.57 185.265 289.27 184.645C289.97 183.945 290.43 183.015 290.43 181.315V146.365Z" fill="#0396FF" stroke="#0396FF" stroke-width="1.06" stroke-miterlimit="10"/>
<path d="M326.71 146.285C326.71 144.735 326.32 143.885 325.7 143.185C325 142.405 324.07 141.945 322.99 141.945C321.91 141.945 320.97 142.415 320.28 143.185C319.66 143.885 319.27 144.735 319.27 146.285V192.785C319.27 194.485 317.95 195.805 316.25 195.805H311.13C309.43 195.805 308.11 194.485 308.11 192.785V136.435C308.11 134.575 308.42 133.645 309.12 132.865C309.82 132.085 310.9 131.465 312.22 131.465C313.38 131.465 314.08 131.855 315.01 132.315L315.48 132.545C316.02 132.775 316.57 133.015 317.26 133.015C318.42 133.015 319.89 132.395 321.06 132.005C322.23 131.615 323.46 131.465 324.63 131.465C327.89 131.465 331.45 132.865 333.16 134.335C336.88 137.435 337.89 141.855 337.89 145.575V192.775C337.89 194.475 336.57 195.795 334.87 195.795H329.76C328.05 195.795 326.74 194.475 326.74 192.775V146.275L326.71 146.285Z" fill="#0396FF" stroke="#0396FF" stroke-width="1.06" stroke-miterlimit="10"/>
<path d="M373.99 181.085C373.99 186.745 372.21 190.235 369.11 192.785C366.32 195.035 362.83 196.345 359.04 196.345C355.25 196.345 351.75 195.025 348.96 192.785C345.86 190.225 344.16 186.735 344.16 181.085V177.205C344.16 175.505 345.63 174.185 347.34 174.185H352.3C354 174.185 355.32 175.505 355.32 177.205V181.315C355.32 183.015 355.71 183.945 356.41 184.645C357.11 185.265 358.04 185.655 358.97 185.655C360.06 185.655 361.06 185.185 361.76 184.415C362.38 183.715 362.77 182.865 362.77 181.315V177.825C362.77 175.575 362.54 174.025 361.92 172.865C361.14 171.395 359.9 170.465 358.04 169.295L353 166.035C349.51 163.785 347.19 162.005 345.79 159.295C344.7 157.125 344.16 154.255 344.16 150.075V146.585C344.16 140.925 345.86 137.435 348.96 134.885C351.75 132.635 355.24 131.315 359.04 131.315C362.84 131.315 366.32 132.635 369.11 134.885C372.21 137.445 373.92 140.935 373.92 146.585V149.685C373.92 151.385 372.37 152.705 370.66 152.705H365.78C364.08 152.705 362.76 151.385 362.76 149.685V146.355C362.76 144.645 362.3 143.715 361.6 143.025C360.9 142.405 359.97 142.015 359.04 142.015C357.95 142.015 357.02 142.475 356.33 143.255C355.71 143.955 355.32 144.805 355.32 146.355V148.915C355.32 151.085 355.63 152.555 356.17 153.725C356.87 155.195 358.11 156.125 360.05 157.365L365.09 160.625C368.42 162.795 370.75 164.505 372.14 166.905C373.46 169.075 374 171.945 374 176.365V181.095L373.99 181.085Z" fill="#0396FF" stroke="#0396FF" stroke-width="1.06" stroke-miterlimit="10"/>
<path d="M13.93 167.925C12.84 167.925 12.07 168.705 12.07 169.705V188.535C12.07 190.235 10.75 191.555 9.04997 191.555H3.92997C2.21997 191.555 0.909973 190.235 0.909973 188.535V130.635C0.909973 128.935 2.22997 127.615 3.92997 127.615H15.79C19.59 127.615 23.08 128.935 25.87 131.185C28.97 133.745 30.67 137.235 30.67 142.885V152.655C30.67 158.315 28.97 161.805 25.87 164.355C23.08 166.605 19.59 167.925 15.79 167.925H13.93ZM13.93 138.015C12.92 138.015 12.07 138.795 12.07 139.795V155.835C12.07 156.765 12.92 157.535 13.93 157.535H15.4C16.18 157.535 17.34 157.225 18.27 156.295C18.97 155.515 19.51 154.355 19.51 152.655V142.885C19.51 140.875 18.73 139.635 17.88 138.935C17.03 138.235 16.1 138.005 15.4 138.005H13.93V138.015Z" fill="#FBF7F4" stroke="#0396FF" stroke-width="1.06" stroke-miterlimit="10"/>
<path d="M66.71 147.315C66.71 153.205 66.32 157.545 63.3 160.255L62.6 160.875C62.21 161.265 61.98 161.645 61.98 162.035C61.98 162.425 62.21 162.815 62.6 163.195L63.3 163.815C66.32 166.525 66.71 170.095 66.71 175.985V188.545C66.71 190.245 65.39 191.565 63.69 191.565H58.57C56.87 191.565 55.55 190.245 55.55 188.545V171.885C55.55 169.865 55.08 168.865 54.46 168.165C53.53 167.235 52.29 167.005 51.44 167.005H49.97C48.96 167.005 48.11 167.785 48.11 168.715V188.555C48.11 190.255 46.79 191.575 45.09 191.575H39.98C38.27 191.575 36.96 190.255 36.96 188.555V130.655C36.96 128.955 38.28 127.635 39.98 127.635H51.84C55.64 127.635 59.13 128.955 61.92 131.205C65.02 133.765 66.72 137.255 66.72 142.905V147.325L66.71 147.315ZM49.97 138.015C48.96 138.015 48.11 138.795 48.11 139.795V155.145C48.11 156.075 48.96 156.845 49.97 156.845H51.44C52.29 156.845 53.53 156.615 54.46 155.685C55.08 154.985 55.55 153.985 55.55 151.965V142.895C55.55 138.945 52.84 138.015 51.44 138.015H49.97Z" fill="#FBF7F4" stroke="#0396FF" stroke-width="1.06" stroke-miterlimit="10"/>
<path d="M73.22 142.355C73.22 136.695 74.92 133.205 78.03 130.655C80.82 128.405 84.31 127.085 88.1 127.085C91.89 127.085 95.39 128.405 98.18 130.655C101.28 133.215 102.98 136.705 102.98 142.355V176.845C102.98 182.505 101.28 185.995 98.18 188.545C95.39 190.795 91.9 192.105 88.1 192.105C84.3 192.105 80.82 190.785 78.03 188.545C74.93 185.985 73.22 182.495 73.22 176.845V142.355ZM91.82 142.115C91.82 140.405 91.35 139.475 90.66 138.785C89.96 138.165 89.03 137.775 88.1 137.775C87.17 137.775 86.24 138.165 85.54 138.785C84.84 139.485 84.38 140.415 84.38 142.115V177.065C84.38 178.765 84.84 179.695 85.54 180.395C86.24 181.015 87.17 181.405 88.1 181.405C89.03 181.405 89.96 181.015 90.66 180.395C91.36 179.695 91.82 178.765 91.82 177.065V142.115Z" fill="#FBF7F4" stroke="#0396FF" stroke-width="1.06" stroke-miterlimit="10"/>
<path d="M112.52 191.565C110.81 191.565 109.5 190.245 109.5 188.545V130.645C109.5 128.945 110.82 127.625 112.52 127.625H124.38C128.18 127.625 131.67 128.945 134.46 131.195C137.56 133.755 139.26 137.245 139.26 142.895V176.295C139.26 181.955 137.56 185.445 134.46 187.995C131.67 190.245 128.18 191.565 124.38 191.565H112.52ZM123.99 181.025C124.84 181.025 126.16 180.635 127.09 179.475C127.71 178.695 128.1 177.615 128.1 176.145V142.895C128.1 140.955 127.48 139.715 126.63 139.015C125.78 138.235 124.69 138.005 123.99 138.005H122.44C121.28 138.085 120.66 138.785 120.66 139.785V179.315C120.66 180.475 121.2 181.015 122.52 181.015H123.99V181.025Z" fill="#FBF7F4" stroke="#0396FF" stroke-width="1.06" stroke-miterlimit="10"/>
<path d="M156.93 177.075C156.93 178.625 157.32 179.475 157.94 180.175C158.64 180.955 159.57 181.415 160.65 181.415C161.73 181.415 162.66 180.945 163.36 180.175C163.98 179.475 164.37 178.625 164.37 177.075V130.645C164.37 128.945 165.69 127.625 167.39 127.625H172.5C174.2 127.625 175.52 128.945 175.52 130.645V177.845C175.52 182.885 173.58 186.525 170.4 189.005C167.84 190.945 164.43 192.105 160.63 192.105C156.83 192.105 153.34 190.865 150.55 188.695C147.53 186.295 145.75 182.885 145.75 177.535V130.645C145.75 128.945 147.07 127.625 148.77 127.625H153.89C155.59 127.625 156.91 128.945 156.91 130.645V177.075H156.93Z" fill="#FBF7F4" stroke="#0396FF" stroke-width="1.06" stroke-miterlimit="10"/>
<path d="M182.04 142.355C182.04 136.695 183.74 133.205 186.84 130.655C189.63 128.405 193.12 127.085 196.92 127.085C200.72 127.085 204.2 128.405 206.99 130.655C210.09 133.215 211.8 136.705 211.8 142.355V145.455C211.8 147.155 210.48 148.475 208.78 148.475H203.67C201.96 148.475 200.65 147.155 200.65 145.455V142.125C200.65 140.415 200.18 139.485 199.49 138.795C198.79 138.175 197.86 137.785 196.93 137.785C195.84 137.785 194.91 138.245 194.22 139.025C193.6 139.725 193.21 140.575 193.21 142.125V177.075C193.21 178.625 193.6 179.475 194.22 180.175C194.92 180.955 195.85 181.415 196.93 181.415C197.86 181.415 198.79 181.025 199.49 180.405C200.19 179.705 200.65 178.775 200.65 177.075V172.965C200.65 171.265 201.97 169.945 203.67 169.945H208.78C210.48 169.945 211.8 171.265 211.8 172.965V176.845C211.8 182.505 210.09 185.995 206.99 188.545C204.2 190.795 200.71 192.105 196.92 192.105C193.13 192.105 189.63 190.785 186.84 188.545C183.74 185.985 182.04 182.495 182.04 176.845V142.355Z" fill="#FBF7F4" stroke="#0396FF" stroke-width="1.06" stroke-miterlimit="10"/>
<path d="M240.87 127.625C242.58 127.625 243.89 128.945 243.89 130.645V135.525C243.89 137.225 242.57 138.545 240.87 138.545H237.07C235.98 138.545 235.21 139.315 235.21 140.325V188.455C235.21 190.155 233.89 191.555 232.19 191.555H227.07C225.37 191.555 224.05 190.235 224.05 188.535V140.325C224.05 139.315 223.27 138.545 222.19 138.545H218.39C216.69 138.545 215.37 137.225 215.37 135.525V130.645C215.37 128.945 216.69 127.625 218.39 127.625H240.87Z" fill="#FBF7F4" stroke="#0396FF" stroke-width="1.06" stroke-miterlimit="10"/>
<path d="M260.01 188.545C260.01 190.245 258.69 191.565 256.99 191.565H251.87C250.17 191.565 248.85 190.245 248.85 188.545V130.645C248.85 128.945 250.17 127.625 251.87 127.625H256.99C258.69 127.625 260.01 129.025 260.01 130.725V188.545Z" fill="#FBF7F4" stroke="#0396FF" stroke-width="1.06" stroke-miterlimit="10"/>
<path d="M266.53 142.355C266.53 136.695 268.23 133.205 271.33 130.655C274.12 128.405 277.61 127.085 281.41 127.085C285.21 127.085 288.69 128.405 291.48 130.655C294.58 133.215 296.29 136.705 296.29 142.355V176.845C296.29 182.505 294.58 185.995 291.48 188.545C288.69 190.795 285.2 192.105 281.41 192.105C277.62 192.105 274.12 190.785 271.33 188.545C268.23 185.985 266.53 182.495 266.53 176.845V142.355ZM285.13 142.115C285.13 140.405 284.66 139.475 283.97 138.785C283.27 138.165 282.34 137.775 281.41 137.775C280.48 137.775 279.55 138.165 278.85 138.785C278.15 139.485 277.69 140.415 277.69 142.115V177.065C277.69 178.765 278.16 179.695 278.85 180.395C279.55 181.015 280.48 181.405 281.41 181.405C282.34 181.405 283.27 181.015 283.97 180.395C284.67 179.695 285.13 178.765 285.13 177.065V142.115Z" fill="#FBF7F4" stroke="#0396FF" stroke-width="1.06" stroke-miterlimit="10"/>
<path d="M321.4 142.045C321.4 140.495 321.01 139.645 320.39 138.945C319.69 138.165 318.76 137.705 317.68 137.705C316.6 137.705 315.66 138.175 314.97 138.945C314.35 139.645 313.96 140.495 313.96 142.045V188.545C313.96 190.245 312.64 191.565 310.94 191.565H305.82C304.12 191.565 302.8 190.245 302.8 188.545V132.195C302.8 130.335 303.11 129.405 303.81 128.625C304.51 127.845 305.59 127.225 306.91 127.225C308.07 127.225 308.77 127.615 309.7 128.075L310.17 128.305C310.71 128.535 311.26 128.775 311.95 128.775C313.11 128.775 314.58 128.155 315.75 127.765C316.92 127.375 318.15 127.225 319.32 127.225C322.58 127.225 326.14 128.625 327.85 130.095C331.57 133.195 332.58 137.615 332.58 141.335V188.535C332.58 190.235 331.26 191.555 329.56 191.555H324.45C322.74 191.555 321.43 190.235 321.43 188.535V142.035L321.4 142.045Z" fill="#FBF7F4" stroke="#0396FF" stroke-width="1.06" stroke-miterlimit="10"/>
<path d="M368.68 176.845C368.68 182.505 366.9 185.995 363.8 188.545C361.01 190.795 357.52 192.105 353.73 192.105C349.94 192.105 346.44 190.785 343.65 188.545C340.55 185.985 338.85 182.495 338.85 176.845V172.965C338.85 171.265 340.32 169.945 342.03 169.945H346.99C348.69 169.945 350.01 171.265 350.01 172.965V177.075C350.01 178.775 350.4 179.705 351.1 180.405C351.8 181.025 352.73 181.415 353.66 181.415C354.75 181.415 355.75 180.945 356.45 180.175C357.07 179.475 357.46 178.625 357.46 177.075V173.585C357.46 171.335 357.23 169.785 356.61 168.625C355.83 167.155 354.59 166.225 352.73 165.055L347.69 161.795C344.2 159.545 341.88 157.765 340.48 155.055C339.39 152.885 338.85 150.015 338.85 145.835V142.345C338.85 136.685 340.55 133.195 343.65 130.645C346.44 128.395 349.93 127.075 353.73 127.075C357.53 127.075 361.01 128.395 363.8 130.645C366.9 133.205 368.61 136.695 368.61 142.345V145.445C368.61 147.145 367.06 148.465 365.35 148.465H360.47C358.77 148.465 357.45 147.145 357.45 145.445V142.115C357.45 140.405 356.99 139.475 356.29 138.785C355.59 138.165 354.66 137.775 353.73 137.775C352.64 137.775 351.71 138.235 351.02 139.015C350.4 139.715 350.01 140.565 350.01 142.115V144.675C350.01 146.845 350.32 148.315 350.86 149.485C351.56 150.955 352.8 151.885 354.74 153.125L359.78 156.385C363.11 158.555 365.44 160.265 366.83 162.665C368.15 164.835 368.69 167.705 368.69 172.125V176.855L368.68 176.845Z" fill="#FBF7F4" stroke="#0396FF" stroke-width="1.06" stroke-miterlimit="10"/>
</svg>
